<mxfile host="app.diagrams.net" agent="Mozilla/5.0 (X11; Linux x86_64) AppleWebKit/537.36 (KHTML, like Gecko) Chrome/128.0.0.0 Safari/537.36" version="24.7.12">
  <diagram name="Page-1" id="B77i0Dpu6VGQ2P7hXhwr">
    <mxGraphModel dx="2218" dy="751" grid="1" gridSize="10" guides="1" tooltips="1" connect="1" arrows="1" fold="1" page="1" pageScale="1" pageWidth="850" pageHeight="1100" math="0" shadow="0">
      <root>
        <mxCell id="0" />
        <mxCell id="1" parent="0" />
        <mxCell id="WYeoPKXgjqMeUzQvk-Uc-8" style="edgeStyle=orthogonalEdgeStyle;rounded=0;orthogonalLoop=1;jettySize=auto;html=1;entryX=0;entryY=0.5;entryDx=0;entryDy=0;strokeColor=#007FFF;" parent="1" source="WYeoPKXgjqMeUzQvk-Uc-1" target="WYeoPKXgjqMeUzQvk-Uc-6" edge="1">
          <mxGeometry relative="1" as="geometry" />
        </mxCell>
        <mxCell id="WYeoPKXgjqMeUzQvk-Uc-1" value="&lt;font color=&quot;#007fff&quot; style=&quot;font-size: 18px;&quot;&gt;Publisher&lt;/font&gt;&lt;div style=&quot;font-size: 18px;&quot;&gt;&lt;font color=&quot;#007fff&quot; style=&quot;font-size: 18px;&quot;&gt;&amp;nbsp;(moq-rs (ffmpeg)&lt;/font&gt;&lt;/div&gt;&lt;div style=&quot;font-size: 18px;&quot;&gt;&lt;font color=&quot;#007fff&quot; style=&quot;font-size: 18px;&quot;&gt;&amp;nbsp;/ moq-js)&lt;/font&gt;&lt;/div&gt;" style="rounded=1;whiteSpace=wrap;html=1;strokeColor=#007FFF;" parent="1" vertex="1">
          <mxGeometry x="10" y="190" width="170" height="70" as="geometry" />
        </mxCell>
        <mxCell id="WYeoPKXgjqMeUzQvk-Uc-9" style="edgeStyle=orthogonalEdgeStyle;rounded=0;orthogonalLoop=1;jettySize=auto;html=1;entryX=0;entryY=0.5;entryDx=0;entryDy=0;strokeColor=#007FFF;" parent="1" source="WYeoPKXgjqMeUzQvk-Uc-6" target="WYeoPKXgjqMeUzQvk-Uc-7" edge="1">
          <mxGeometry relative="1" as="geometry" />
        </mxCell>
        <mxCell id="WYeoPKXgjqMeUzQvk-Uc-6" value="&lt;font color=&quot;#007fff&quot; style=&quot;font-size: 18px;&quot;&gt;Relay Server&lt;/font&gt;" style="rounded=1;whiteSpace=wrap;html=1;strokeColor=#007FFF;" parent="1" vertex="1">
          <mxGeometry x="329" y="190" width="170" height="70" as="geometry" />
        </mxCell>
        <mxCell id="WYeoPKXgjqMeUzQvk-Uc-7" value="&lt;font color=&quot;#007fff&quot; style=&quot;font-size: 18px;&quot;&gt;moq-js Subscriber&lt;/font&gt;" style="rounded=1;whiteSpace=wrap;html=1;strokeColor=#3399FF;" parent="1" vertex="1">
          <mxGeometry x="649" y="190" width="170" height="70" as="geometry" />
        </mxCell>
        <mxCell id="WYeoPKXgjqMeUzQvk-Uc-10" style="edgeStyle=orthogonalEdgeStyle;rounded=0;orthogonalLoop=1;jettySize=auto;html=1;entryX=0;entryY=0.5;entryDx=0;entryDy=0;strokeColor=#FF8000;" parent="1" source="WYeoPKXgjqMeUzQvk-Uc-11" target="WYeoPKXgjqMeUzQvk-Uc-13" edge="1">
          <mxGeometry relative="1" as="geometry" />
        </mxCell>
        <mxCell id="WYeoPKXgjqMeUzQvk-Uc-11" value="&lt;font color=&quot;#ff8000&quot; style=&quot;font-size: 18px;&quot;&gt;Publisher&lt;/font&gt;&lt;div&gt;&lt;font color=&quot;#ff8000&quot; style=&quot;font-size: 18px;&quot;&gt;&amp;nbsp;(ffmpeg)&lt;/font&gt;&lt;/div&gt;" style="rounded=1;whiteSpace=wrap;html=1;strokeColor=#FF8000;" parent="1" vertex="1">
          <mxGeometry x="10" y="398" width="170" height="70" as="geometry" />
        </mxCell>
        <mxCell id="WYeoPKXgjqMeUzQvk-Uc-12" style="edgeStyle=orthogonalEdgeStyle;rounded=0;orthogonalLoop=1;jettySize=auto;html=1;entryX=0;entryY=0.5;entryDx=0;entryDy=0;strokeColor=#FF8000;" parent="1" source="WYeoPKXgjqMeUzQvk-Uc-13" target="WYeoPKXgjqMeUzQvk-Uc-14" edge="1">
          <mxGeometry relative="1" as="geometry" />
        </mxCell>
        <mxCell id="WYeoPKXgjqMeUzQvk-Uc-13" value="&lt;font color=&quot;#ff8000&quot; style=&quot;font-size: 18px;&quot;&gt;originjs&lt;/font&gt;&lt;div&gt;&lt;font color=&quot;#ff8000&quot; style=&quot;font-size: 18px;&quot;&gt;&amp;nbsp;LL-DASH Server&lt;/font&gt;&lt;/div&gt;" style="rounded=1;whiteSpace=wrap;html=1;strokeColor=#FF8000;" parent="1" vertex="1">
          <mxGeometry x="329" y="398" width="170" height="70" as="geometry" />
        </mxCell>
        <mxCell id="WYeoPKXgjqMeUzQvk-Uc-14" value="&lt;font color=&quot;#ff8000&quot; style=&quot;font-size: 18px;&quot;&gt;DASH.js Player&lt;/font&gt;" style="rounded=1;whiteSpace=wrap;html=1;strokeColor=#FF8000;" parent="1" vertex="1">
          <mxGeometry x="649" y="398" width="170" height="70" as="geometry" />
        </mxCell>
        <mxCell id="WYeoPKXgjqMeUzQvk-Uc-15" value="&lt;font size=&quot;1&quot; color=&quot;#ff8000&quot; style=&quot;&quot;&gt;&lt;b style=&quot;font-size: 24px;&quot;&gt;LL-DASH Setup&lt;/b&gt;&lt;/font&gt;" style="text;html=1;align=center;verticalAlign=middle;resizable=0;points=[];autosize=1;strokeColor=none;fillColor=none;" parent="1" vertex="1">
          <mxGeometry x="314" y="340" width="200" height="40" as="geometry" />
        </mxCell>
        <mxCell id="WYeoPKXgjqMeUzQvk-Uc-16" value="&lt;font color=&quot;#007fff&quot; size=&quot;1&quot; style=&quot;&quot;&gt;&lt;b style=&quot;font-size: 24px;&quot;&gt;MoQ Setup&lt;/b&gt;&lt;/font&gt;" style="text;html=1;align=center;verticalAlign=middle;resizable=0;points=[];autosize=1;strokeColor=none;fillColor=none;" parent="1" vertex="1">
          <mxGeometry x="339" y="130" width="150" height="40" as="geometry" />
        </mxCell>
        <mxCell id="okYzZ2y9IbyXFJe2qwFz-4" style="rounded=0;orthogonalLoop=1;jettySize=auto;html=1;entryX=0;entryY=0.5;entryDx=0;entryDy=0;strokeColor=#007FFF;" parent="1" source="okYzZ2y9IbyXFJe2qwFz-1" target="WYeoPKXgjqMeUzQvk-Uc-1" edge="1">
          <mxGeometry relative="1" as="geometry" />
        </mxCell>
        <mxCell id="okYzZ2y9IbyXFJe2qwFz-5" style="rounded=0;orthogonalLoop=1;jettySize=auto;html=1;entryX=0;entryY=0.5;entryDx=0;entryDy=0;strokeColor=#FF8000;" parent="1" target="WYeoPKXgjqMeUzQvk-Uc-11" edge="1">
          <mxGeometry relative="1" as="geometry">
            <mxPoint x="-80" y="360" as="sourcePoint" />
          </mxGeometry>
        </mxCell>
        <mxCell id="okYzZ2y9IbyXFJe2qwFz-1" value="" style="shape=image;verticalLabelPosition=bottom;labelBackgroundColor=default;verticalAlign=top;aspect=fixed;imageAspect=0;image=data:image/png,iVBORw0KGgoAAAANSUhEUgAAAgAAAAIACAYAAAD0eNT6AAAAAXNSR0IArs4c6QAAIABJREFUeAHtvQnYdEV55n+DKIsiioq44QpqNDpK/BsR3M2iolFB40yGmcxc4yRxwbhviagQAXEh0clgjAszMYoTNRKjCVGjgmiMg6BJ3BVxARQVEQUU/tP393V/9NdvL2d/qk796rre6+0+fU4tv+eup+qcU4tEgAAEIAABCEAAAhCAAAQgAAEIQAACEIAABCAAAQhAAAIQgAAEIAABCEAAAhCAAAQgAAEIQAACEIAABCAAAQhAAAIQgAAEIAABCEAAAhCAAAQgAAEIQAACEIAABCAAAQhAAAIQgAAEIAABCEAAAhCAAAQgAAEIQAACEIAABCAAAQhAAAIQgAAEIAABCEAAAhCAAAQgAAEIQAACEIAABCAAAQhAAAIQgAAEIAABCEAAAhCAAAQgAAEIQAACEIAABCAAAQhAAAIQgAAEIAABCEAAAhCAAAQgAAEIQAACEIAABCAAAQhAAAIQgAAEIAABCEAAAhCAAAQgAAEIQAACEIAABCAAAQhAAAIQgAAEIAABCEAAAhCAAAQgAAEIQAACEIAABCAAAQhAAAIQgAAEIAABCEAAAhCAAAQgAAEIQAACEIAABCAAAQhAAAIQgAAEIAABCEAgYQK7SLqVpEMl/UdJL5T0aklvlfQ3ks6W9EVJX5X0/enfjyX9/9O/2bGvTK7336cl/bOkD0h6i6TjJD1N0uMkHSLpAEm7JcyDrOVN4LqSbjvVmjVn7VmD1qI1aW1ao9bqvKZnera2Z5r279a+64DrguuE68YLJP3WtM647rgOESAAAQgkS8CN7l0lPWHqEN87dW5XzDXmMyfY9/8rJx2C8yS9XdKLp52DgyRdJ1l6ZCw1AtbznSU9XtIfTLVkTVlbfet3MX7XoS9Icp06dlrH7oKeU5MM+YFAOQT2nzasvmPxHcxPAxzjoqPc9N2O9CxJJ0zu1B4l6cblmIuSbiCw7+TO/XBJJ0r6uKSIjusm/S7+7jrnuvcqSY+VdPMNZeRnCEAAAo0I3EjSEZL+XNKXMmjsF53lsu9XT58UvF7SEyW5jIQyCLjz95uS/sfkLv+zk7t8a2GZRnI75lcKb5w+udinDFNSSghAoA8Cd5++j/yopJ+NxEGuc+hXTd67/sP0va7f8xLGReD2ko6W9MFC9Ow6+5HJ04znS7rbuExJaSAAgT4I+D3+SyT9SwEN/rrOgH87ZzIA66U4zz5kNlic7sS+fPKI/Fz0rM9J+sPp2IbBDEBCEIBA2gT2k/QcnOTaR8CfkPTfJfFYNW0tO3d+lfO7kv6JRn+lpj8j6VmSbpa+OckhBCDQNYFdJT1M0qmSfoKjXOkoF58SeHDYadMBY8wq6FqVzeOznj3V9BRJ89NIF+3H953HOnhWg/VsX8B0w+b640oIZEFgb0nPmM5Txhnu7Azr8viypN+bjBzfKwvLjzOT15f0VPRcuQO7TuPWs8dI3GCcUqFUECiXgKcIHTMZ4HYJd/udOMt5R/rDyZTCkyXdslx5DV5yP7q2nr+HnjvX86VTPd96cKuSIAQg0CmBO05WLntz0AIm841kCZ/9KuVPJd2pUwsS2TyBA6eP+XNYdyJ3zfv1gKf9evYEAQIQyIjAbaa9+BwWNMndUS7m33PKPbaCJwLdVRgviev3+yVMR13UU/R3T4+1nu/QnTmJCQIQ6IOAH/W/jjv+zh+LNnHCl0v6I2YOtJK5R/S/YjJLxSyb2IBruuPmm4k/niye5FlDBAhAICEC3qTEA3j8PhqnlxYDj7t43mQJ4j0T0kvqWbmepCdPpvNdhJ6Tq8+eZeHxF7unLiLyB4ESCDxmRMvzjrnz4h3ifq0EQbYs469Pd9IbsxbGUDYvO+z9EwgQgEAAAQ/O+TvukJK7Q9rk3N8xeZ99iwC9pJ6kx0x4TvomfvyeFqO/nW6RnLq+yB8ERkHAi5748ehlOMtsGwu/qvErGxYTkmZ69vQzGvc8GXiMhl9zoedRNDEUIlUCvyjpkzjK0TQUtqXXqy81WM+fQs+j0bO3Jy5Zz6XWY8rdMwEv0+k7Rqb15XmHtO7O1nPafffkO+FSgvXsp1iM7h+fnj1t0IMES9JzKfWWcgYQ2F/S+7lLGs1d0qrOwN8XMjbA08j+Bj2PXs/edtnrNxAgAIGGBI5g+d7RO8r5DsGFk1c8HgU/1vAopvYVpWcv1fzYsYqZckGgLwKe1/9a7pKKcpazjsA1k8WDXiNpt77EFRCv9ez9Ely2WTn5XwYL2/ykkek5oAqRZCkEvNGJH5/hIMtm8NGRrLp2E/RMXZZkPft1JgECEFhB4JcknU/jj8OcauAbkg5eoZUcDt+DRX3Q8pw/++Zk7ZL75SBc8giBoQk8YTIanF3Oyr7rX/bUx0uveixIbuFISc77sjJxrFwu3mXwt3ITM/mFQF8EPCXqD3g/SkOxprH0e1RPrbJWUg/O47HoGT1v0PMLUxcy+YNA3wQ80Ot/rqko3CmVe6e0zPZvSXwwlVeCewN6pvGvqIE3S/IAUQIEiiNwfUme+73M0XMMLqs08M5Ed2Lz7nB/hZ6pzzU14DVO9irO+1PgognsI+nMmhVlVYPA8fI6Cx+StHdCNcidWTamKk+HXfmej0m6YUJ6JisQ6I3AjSfbwn6Cxp87pZYa8Br6njIaHfaV9PGWZemqISGefDsh/yzpptFiJn0I9Eng5pLOK9RZfk2S71z/fDro8ajJRjCPlPTLkg6U5IbEnSPfTc6CP/uYf/M5PtfX+FoPnHzTNM6vF8rUWvI8+6hgh/3ZQtmj5+47G+dKso8kQGB0BOyoS2n8/23aOP+upEMnK9v5lUffwWkcJun3pml/vpCGyU8ChuC7aD+n+elCGKPn7hv7VU9r3Alwh58AgdEQsLMc87anX548vnudpEcn9hjPj8gfM3lU/npJXxlxY+V3qPNPTvquODeQdNaIeaLn4Rr8ZR2Bf2JMQN9VmPiHImDHPLYBf56X7r2/nzl9ND8Uy7bp3FnSsyYb7nxyhI3XGZL2aAuowvV7jnBpX/Qc2+Av6wR8hNkBFWojpyRNwHNcxzTV718lPVfSbZOmXi1zt5f0fEl+vLvMAeV47L09z6u+nqT3jYgXek5b+54iyDoB1fwZZyVGwCuieaGLHBuS+Tz/RNJbp+/yE0PcWXYeIOnUkSzF/GedUdkaEXreyiTFI2PS8xtTBEyeILCJwB9m3vhfPHmkfLykW2wq6Ih+95iB50n6dua282uOroOflsx3DHP7jJ7ztR/LBnddm4mvVwLe7MLvFXNzks6vd6D7nYHeJ/dqhBaR+z33UyRdkKkNr54OyGyBYKdLf2My7dJxouedsGTzJXc925c+KRvaZLRoAodI8o5XuTlL3/U+LdFlZqME5UF1R0v6Tob2vEzSPTsAd69Md/VDz1uNn7Oer5B0361F4ggE0iGwv6RvZdZYXD7J70sYcbtWRJ7J8bLJAEiPh8ipY+enOdZk03DLDJ+CoOfN1s5Vz34it9/m4nEGBIYn4NGqH82ogfBjtbdNVua7zfCosk3Rsx/ekZGN3VnxdCrvOlk3+Jqcpq+i57oW3j6bJzc9f7ihnuvT4QoI1CBwckYNw1cn67f/So2ycerOBH5NkpeCzeVpgJ9e1A1/lFH50HNd6+58fm56Pmnn7PMNArEEjsjEWf58ssLWq3nc34lYvBreazMZHOcBfA+tUeqHZ1Iu9FzDqBtOzUnPftrjgakECIQTuJWk72XQAThf0oPCaY0vAw/O5D35hRXHA/gdaw7TINFzP3UpFz1/n9eX/QiAWKsT2DWTZVH9rv9G1YvFmTUJePOS0zLoBP7dZDCjNbsq+Ld/yKAc6HmVBbs5nouevfz1Oj13Q4NYILCCwHMSd5aejugd+QjDEHi6pKsS18Sz16DwIkgpj2tAz2uM18NPOei5j0WvekBJlGMj8IuJz/f3dESvSUAYloC3P0553QBPZbzTEiQHJb4UMnpeYrQBDqWuZ68PcPcBOJAEBHYQuE7iO8r9c2FL+O4wTCIfPC7knITvpj2VyntVzII/e7pgqnf/6HlmqZj/qevZO5PyKiBGG0Wm6m1wU3WWH5C0d5FWSavQXmzl9IR18uQ5XF76GT3PAeHjFgKp69mvKwgQ6J2At5H9caIO808l+ekEIQ0CXkzHu/Ol2Lj+cJI339n5z59TzCN6TkPHs1ykrGcvfT2GbcpnrPmfKAGPpE7RWZ648Fg3UXzFZcuP1732Qoqa+WtJ/ksxb+g5zaqSsp7flyYycjUWAl58IkVn6W17CWkTSH2EfUq6Rs9pa9m5S1XPj0wfHTnMkcD1JH0xwQ6AN/Ih5EHAS/Km1NCmmBf0nIeWncsU9fwldjTNR0A55TTFHu9rcgJIXrcROIFOwMpOEHrOr5KkqGcP0iZAoDMCN5d0aWKO2wOk5qdydVZYIuqVgG32hsS0lMKTAPTcq+x6izxFPf9A0s16KzERF0fg9Yk5bA92abLFa3GGS7TAnqmR6uC7iM4Aek5UqBWzlaKevVEXAQKtCRwgyatNRTjGZWl+WpJ37iLkTcBrNaS8WNAy7fVxDD3nreNZ7lPT808l3XqWOf5DoCmBlOZxeznUWzQtCNclR8Bz8FNeNriPBn8+TvScnCRbZSg1Pfu1EgECjQncLqH1/r3JzGGNS8KFqRK4X0Iam2+c+/6MnlNVZLt8paRna8wLtxEg0IjAmxN69M+ufo1MmMVFRyeks74b/ln86DkLaTbKZEp69hNcAgRqE/DjLG8/OnNYkf+9//lYwnUleSfFIyZb575w0kN/q6SzJJ0n6SuSvj/lbvb+7GPnTs/xub7m8dM4HNdYwv9JRGtD6Bw9b9c8eu7fv3r8Fq9Nx+IlByxHKvNbL5C074Dl7jopjxC+myRvPnNax+vOXy7pjOmqZN62NOcOwY0knV9AJwA9r2700PNqNm06psd17dSIb9wEPKLVc0nbiK6La6+ebNP64ExRu9H3kq4XDsjxkklv/xRJ7gzkGB4g6ecD8upCo3XiQM/1fAp6rsdrlRb9JJGZUzl6xKA8PyMRJ+xNZHIK7jh5Fa7PJcDvs5PFm34/w4p/cgLsVjnStsfRc/MGDT03Z2fdPi0nR0pe4wjsOn3v3NbZtb3e7769B3cO4YbTx/C+Y2lb7q6v9wqOfhKRy2sU36l8PUGObe2CnrupG+i5GUfvEcDKqTm0JsF5fHgizvdXgjlUSX6vyYqEx07u+n+UCLN1jZQdpzcvcZ5TD7+eAc91rJf9hp6bNVzLWPoYeq7PM9fXqan7q1HlzwPVVlW6oY7nMEr6cElfS4BVXZt8U9JRGSh2TLMC0HN/PgU9V2ebgw4zcE3jzeJNE1j29yeSbpsw4ttIOj3Dhn+xo/BeSS5LqsF586jwxXzn9h09D2ND9LyZs6cWs0lQqh4vgXw9JwGHm/J+6I+S9L0EGHXVCLosj0xAd6uy4NcrXZU1Kh70PJwN0fNm1h4YTIDAUgJecCbKUTrdbyf6jto7Dx4jydO4Ivn0kfY1kjzy/npLFRF70AMCL8qYOXoevr6g5/XMvfkUAQJbCNwlAUf71C25ij/g0fNnJsCmj8Z/Ps6PTjoCN47HvSUHnlY5n8+cPqPnONuh59XsD9xSyzhQPAHf4UY6129I2j0xK3gJzeinIkPa5F8SHBewhyQP9BqSQxdpoed4m6Hn5TZ4UWJ+luwkQMCVpQvH1zSO30mAwXwW/ESkhKVpF+3lLWq9V0FKwYuYLOYz9e/oOQ2boeetdvBNDQECOwjcPdjB+j3vnjtyE//hrpK+G8wksoFz2d0BSiV47YKcBl+i562NDnq+tjaloOeU6ve1ZPgUQsA7zEVW0D8MKfXyRL0L4hhXoqtrX29ac8ByRCFHvYhR3TJEnY+e07MVet7ZJp7xRYDANgIeMBPlLD1POpW5qd6RrqR3/pts7tdCqSwhvN9kueWfBup0E6vZ7+g5zpfMbLDqP3q+1jYfou2DgAnsM9lj/qpAx+o9wVMI3kq3hNH+q5zjquPuHKayzfD/DtTpKj6Lx9HztY3MIpsUvqPn7faxz7fvJxRO4Mhgp5rK1rUnBXNIwTmuysMJidSRB2VgI/ScdgfAGkfP2230G4nUa7IRSODPA53qvwaWez7pR0jyAiKrGsDSj5vNY+aBBX32bmZfSNhO6DmPOoSet9vplKB6TLIJEfhyoENNYSCK15zPaYR5VGfEMwNunYBuXxCo103s0XMeHQDbET1Ln0+gPpOFQAI3D3Sm7oXfLrDss6S9icgmx87v2xm9ZwYt8P8dEn1ag57zq0el69ma9eBaQqEEHh/Y+H08AeZ+B0bjXo+Bt0GODp9K0G7ouZ6OUql3pes5hVd70f6k2PRfFehIo3el8mIcXw0sfyoOsG4+vDri9YNrzLMTtBt6zrMDULqeTwyuyyQfSOATgY40ekOKMWw1W7fx7ur8lwZq1kl7pcauytJVPOg5PZtUtW3Jek7hyVWwOykzeW9xG7Wwiu+8I4MXt/lRgo1IVYcVfd6lCewc+JWE7Iee8238XZdK1rMXrrpOpDMm7RgCvxDoQP8kpsg7Uo3e+TC6Ae8i/T/YQTPmw58G6neRH3rOuwNge5as5zvHVGFSjSTwxEAH+ujAgvv9dckb/Sw2Xk2/XyJp70A7Pi5Qv4vM0HP+HYCS9XxEYD0m6SACxwU5UE89iVz7/5lB5V5sNMbwPXLgm6cvpcAQPadhhy60UKqevdEWoTACpwc50H8L5nxeULm7cFCpxfG5YFt+MQFboufxdABK1fO7g+sxyQcQiHKeXno4KhycQIORWiPeNj//LsqYkt6cgD3R83g6AK4LJeo5uhMb6ELKTHpXSVcEOc/fDUT+2qAyr2tkfy7JO5Q9S9IvT1fm8u57/vNjbh/zvPePSfK56+KK+O3VgfZ8agI80PPOmkTPzStElJ49G8z7bBAKIeA13SMaC6d5/yDGnupyUWC5F3l7+o13JauzFKfP9cIdUdM3F8vg79+R5A5lRHhAAvZEz9t9CXpuXwMi9bx/++wTQy4EvGXpMmfe9zEPmLphEKRfCirzMqbvlORNiJqGAyS9K6Hy3KtpQVped6PgfQHQ83Y/gp5bCnl6eaSe79dNEYglBwK/FdR4fD0QzvOCyjzfAXCD4TUIunjc5jhcpqsTKJdfX0SFCwLLj57Rc9e6j9Lzv++6IMSXLoEXBjnNDwYieX9QmWcdADfUv9lD+V1x3bGYpRPx/309lKtqlP8YWHb0XNVK1c9DzzF1+fnVTcSZuRPwwK2IhuKNQeA8oO7HQWWecXanq6/gVcxm6UT897LKZhwR3hJYdvTcj8XR8/D1+ZX9mJJYUyRwapDTfHEQjF8MKu+sMfY70i4e+6/C57ijxwTcbVXmej4euawzeu7HuOh5+A6Ap9QSCiHwN0EN4n8K4uulLmeN8dD/PWK/zYC/qshuJckjsYcu3yy9x1bNaMfn/XZgmdFzx8aciw49D1uX3zvHno8jJ/DJIKf5iCCuLwoqrxvH4wcssx/jzRrkof9HvUM8PLDM6LlfcaPn4eoz2wL3q+WkYo9aBdCL2kSEtwY1El4Upc48/7Zsbh44KyDqEeIhQbZ1Bws9t1Xs+uvR83AdgM+vNwW/jolA1FSTOwZB9Cp6Q98ROz2v8Dd0ODOorB8ZuqDT9A4KKq/ti577Nzp6HsZ3nd+/KUkhFQJRK+INeTc8z/qzQY2Edx4cOjwnqKyfGbqg0/S8gllE585pouf+jY6eh9H3hf2bkhRSIfDDIKe5TxAAL9gS0UhEPCL20rQRZf1qkG1vHFReM0bP/RsdPQ9Tn7/fvylJIRUCUaPF9wwC8L2gRuJmAeX1e9OIDsB3A8rqJPcKKq8Zo+f+jY6eh6nPl/dvSlJIhUDUrnLekCciXBnUSFwvoLC7B5XVu0tGBGsqosPjNNFz/xZHz8Po220CoRACdACGqVR0APqvUHQAhtGyOzzoebx6/ln/RSOFVAjwCmAYpxkxSIxHpsPYtsRXAOi5fw8e9UrLS6UTCiHwg6DHpgya6l9gDJoargOAntFz1wSiBrVe0nVBiC9dAt8J6gBE3EHYClHTAJ8dIIGobY+ZBjicsdFz/5280vT87eHkS0rRBLzoQ8TAqTsFFTxqISCnO3Q4K8i2UQsB3TmovK4/6Ll/daPnYXx11DTe/hVEClsIfCHIaUbMi3fhS1kK2IviXB1kW5YC3lLNejuAnvtvFEvT87/1plYiTo5A1GZAjwwiEbkZ0IkDlvlVQY2/74ajNgN6dGCZ0XO/4kbP/Xd0Zk+C2QyoXy0nFTvbAQ9Xsbwd8AEDWP92k0bYc/FnFXro/2wHPICRp0lEb2+NnvuzddT21mwH3J9Nk4vZj7eGbiCc3h8Ekbh7UHlnjN8laZcey+643xNcxl/osXzroj4msNzoeZ1lmv+Gnof3z29sbi6uzI2AH0vPGqch//95EKjrSrosqMwzvn02Fi8JLtuPJJlxRIh6H267oud+LI6eh/fPr+jHlMSaIoGoHbY+FAjj/cGN5DWSntRD+f+DJMc962hE/H9fD+WqGqVnH0SU2Wmi56pWqn4eeo7Rc8TOpdVVwZmdEjgqyGlG7jn93KAyzzdObqiPl7RrB9b0Y1LP+Y8a9T9frmd1UJ6mUXwz0K7oGT031e2q66L0/FurMsTx8RF4QJDTdAN4oyCcBweVeb6hnH32mIA2A6lum8A7/1lZ/P9eQTbdN9im6Hn73Sp67qYCROrZK4gSCiFwq0DHeVgQY28ac2FguecbTH/27IBXSvLa/VWD5/mfFDzaf7EcXkGsiycaVRnMn/egBOyJnrd3AtDzvDKbfY7Ucx0/1Kx0XJUMAT8+9v7Pi858iO9PCaTwmqAyr+PqR/hnTuzhcRmHTDsE3nXN26C6Urpn7tcXXhEthcf9i2XxXO2o8PQE7Imed/Yj6Ll5bYjSswdIu00gFETgc0HO802BjO8dVObFRnNM3+8ZaM+3JGBP9LxzByB3bZeo53MD6zBJBxHwwg8RldXLEEeG84LKHcG67zTdiYwMX07Alug5xo/0oe1S9fxXkZWYtGMInBDkPD1w6mYxRd6W6u8HlbsPhxUd5zMC7ejxENHld/roOQ07dKGFUvX8R4H1mKSDCPxmoAP9jaAyO9nrS/puYNm7cFQpxPE9SXsH2jFyOdxF/ug5/05AyXo+MrAek3QQgchtVF8XVOZZstErjS02IDl+f/EMZtD/UxLqxKHn/DsAJev5DkF1mGQDCXjqlpdwjWh8ovee3kfSD4PKHsG76zQvDVzPYVZlvp6Q/dBzjB/pStcl69llZwbAzKsU9v+jgU70oGDWLwsse1eOKyoeP0GJDN54KKrsq9JFz+nZZJWtFo+XrOcPR1Zk0o4lcHKgI41cPtbU95TkO7dFZ8D39Ux8571XrGy3rYuQmp3Q83rdpGavWX5K17PXRiEUSuAJgQ3gJxNg/pjA8s8cUG7/H5WA3f5vgnZDz3l2AErX8+MSqM9kIYjAfsE7yd0xqNzzyUath5Bbw+/8vnseXNBnayZVdug5Xdss00zpevYU1psG1WOSTYRA1IqArpDezS463EaSpwAtcxAcu5aLp07eOtpYkl6UsK3Q87V6Sb3uoGeJFQATcGjRWXh9oEP9fCIjUB8R/CQkdWfpO4VHRwt1qpUvBup1k53Qcx4dAPS83U4eA0YonEDkOAA71Kjd1BbNfmLCDcumhqfv31+xCCvo+4MzsBF6Tr8TgJ632+ixQfWYZBMi4HdAPw90rKcmwuK6kiKnRfbdiDeN/x8l7ZaIjf4iUKdV+aHntDsA6Hm7fa6SdONE6jXZCCbwkUDH6n3EPRgxheAFgj4TyKJqIzPUeR4fsm8KhplujWytDFX2pumg53RthJ6vtc0HE6nXZCMBAs8MdqzHJMBgloVbSvpaMI+mjU+X110g6YAZlAT+H5eRTdDztQ1Nl5psExd63tkmT0+gTpOFRAhET626ZLpJTyI4dJfCNwzyCGkzSCV44aGcZmqg550bmzYNdxfXouet9rh9KpWbfKRBIHI6oCv576WBYUcu3ACen9FdZxeO0nF8S9Iv7qCQxoejM7QDet7a6HSl0TrxoOetdmD6Xxp+LalcvDzYyfoR3R5JEZFuoe1zZes4nJzP/RdJXhchpeC7/28Ha7OJTdHz1oanCcc216Dn5TZI6RVVSr6m6Lx4M5M2la2La1N8L+VBcCXMDvDo6BRHBT87AV021TZ6jvMp6Hk1e28FT4DAFgJez7yps+viuu8kNhZgBsjT4NxrvjqYTxeMF+PwoiheEMTTIFMLe09eDV2cMXP0PLw/Qc/rmX88tUpOftIh8NQEnK236U01PEzShQkwWmzEm3734CivgphqOH4ErNHz+gapqXaXXYeeN7P+nVQrO/mKJ+DH3VcEO92fSLpdPIqVOfB6+H8dzGiZ86t77D2JrO2/CvQdJntF5DDvfxN39Ly5UdrEsMrv6Hkz5ysl3WRVheM4BEzgXQk0bu/IwBTeRvSrCbCq4hznz/mKpEdmwNc7tc3nO+fP6Lk/W6Ln6mzfmUG9J4vBBB6eiONNYZ/uTabYc3KCxwZcmgizdY3kDyd5fIkk5zn14NcS68qS42/ouVubouf6PL2XBgECGwmcl4AD/rqkG2zMaRoneLCa56p70FdqjZMX0HEnJcUR/susZ5bfSJBjW7ui527qBnpuxtHrvOyyrMJxDAKLBDxQpK3D6+L61y5mLPHv7rD8vqQUOlDOwzMy6kTNTPsniWivC/0uxoGem/sV9NycnXX45FkF4z8ENhHw4iteznTRgQ393dPuHrIps4n+frfJwkYexT7kUwHfHZ0i6dBEmWzK1gNHOtVyVm/Qcz2fgp7r8ZrpbPH/9xOdXr3JH/B7IIGTEugAWMheUS2VHemamsMj2t0DP23yquAHHXL9saQzJqPlnyfpYEm7Ns1gAtd5W2ov27rovMazBLwZAAAgAElEQVT2HT2vtjF6Xs2mTT14ZQL1myxkRuBWCU3DcsM5luBFhfx04HGTKZfPl/RmSWdOtyH2iGY/efF0Hf/5s495i+KPTXbne9P0Gl/rOBzXGILfTXoaVxsnl9O16Bk9D6VXT6X1DqcECNQm8PqEnHKKy6rWBsoFSwnkvNxvU0eOnpdKYRQHU9LzH4+CKIUIIeCNYaIXBpo52J9JekAIBRLtk4CnJtm2MzuX8h8996mquLhT0rN9txcuI0CgMYH/mZBz9oA6v5ogjIOAO5gXJaSvoTsf6HkcOp6VIjU9+wkuAQKtCHhZXr+PHto5rkrvHEmeK07Im8ANC9tqGT3nrddNuU9Nz777T21r700M+T1RAq9OqANgR/r+EQ2AS9TkvWbLOw/+XWKaWtVAD3EcPfcqt94jT1HPJ/ZeahIohoCn4aWwLsC8M/4zVrbKUn8e8e+ZD/O25LOEnrOU87bV9VLTs3dFvFGeOMl1qgS8qlxqjtr72BPyIpDK+hKpadn5Qc95adm5TVHPT8kPIzlOnYAfc30hwU7AS1MHR/52EDguQf2k1hFAzzvkkvyHFPX8eUn21QQIdE7gMYk68Jd1XlIi7JrAsYlqJ7UOgPODnrtWX/fxparnHHad7N4axDgYgVT3aX8dYwIG00CdhPzOP7VBpLNG/28koec61uTclPX8fzAPBPom4IUlLk30bu4NzA7o2/y14vejSC9fPGtwU/rv/eS9poT//DmlvM3ygp5rya33k1PXM0v+9i4BEjCBpyXqMO04/35yx+k5uYRYAt4a+X0J6+S/zeHxRk2zRje1/+h5zlCBH1PX8+8GsiHpwgh417lPJOw0vVgQKwbGidILkJybsD4+tPC6yI91P5xwftFznJadcup6PivznUBjrUvqjQj8gqSfJOw0vczqYY1KxkVtCDwo8eV9L5d0pyUF9DH0vARM4Ydy0PNdCrcRxQ8ikPKrAD/KvUrS0UFsSkvWd9HPymBjn2euMYzzn9orgPn8oOc1xuv4p1z0zJz/jg1PdNUJuJJ4GdN5J5XiZ4+O9WqGhH4I3FTSezLQwQc2PCr1q60clihGz/3oeBZrLnr+24VXWbP88x8CgxHYT9KFGTh/vxL4tcGolJPQQyV9MwP7W6P7VzCL9fytDMqDnisYs8EpuejZy/1W0XMDBFwCgXoEHi3pmgyc5tXT5VY9opfQjoB3ZPyTTOz+c0nep71qeIgkayXFp1nzeULPVS26+byc9Gxfe/jmInEGBIYjcHwGDnPmPH2H99jh0IwupUdIOj8jex/TwAJejW+ml9T/o+cGBp67JDc9ewliAgSSInAdSWdk5DTt1P0u9fZJUUw7M3dMeOW8VY30P0qyNusGX+NrV8Wb4nH0XM/KOerZ60I00XM9MpwNgQYEPHgmpztDO/GfTlYP9LrevBZYbXA/Hn2FpCsyaxCtxTbvSX0tel6ti1x/yVXPX5u8drtJrtDJdxkEfmnaqKZ4h7QuTxdNljj+fUl7lmGmSqXcS9KzJV2cWcNvO/9I0j0qlXL9SfecTG+8LMPyo+etds1Zz16j4t5bi8QRCKRH4ImZDA5b1iHw+1Svb2BnUWq4/nT9BI80X8Yo9WMe9PfIDo3nAVeOM/VyL8sfepZy17MHex7RoZ6JCgK9E3hepg5z5kS9QczJkkraYMNT4Dxg7nuZ2+4ZPajbCwjNtJHjf/Scr/28QBUBAtkR+NPMnaYdvccI/K/JWvEPHOmiG17MyVPk/iLDd/zLGmJrrq9wCnruC21n8Y5Nz97mnACBLAnsJsl7ri9z1Dke+8JkeeEXTjoEHj2ce/Da9y+S9KUR2cerEVpzfQVvB/veEfFCz2n7JmuNEf991WbiHYSA36V/ZEROc9Zx+SdJz5GU00Yc3sDpuZL+eYT28BK+uw+g6D2mW07PdDCW/+g5rc6Ad6cseRzSAFWZJIYi4Gk3Z4+w0Zk5f0/P8aPnx03+33woqBXS8TQ2Dx7yo+vcprPN2Fb57w7mkM7SaX0UPVdQYLenlKJnb+/LtORutUNswQRuNNI7z2UN1BclvXkymO6p07EDNx6AvdPwOAWn+ZaRPdpfxnh27BOS3MEcOtxQ0idH3AmY8fV/9Dzc0wE/idlnaDGTHgSGIOBFLM4txGnOO1B/vmC6spwb55dI+s/T9bwPkXRnSV5EyY34fM/fDZuP3Wx6js/1lLTfnsbhuHz3m8NmPIs8uvj+mSmfIbS7LA3bxnnooiy5xYGeu7f7OexauqyacWxMBOw0P16o08zNyZPf7p08TGG6TAOfmt4EjMnXUxYILCXghTly2Hd9WUXlGA4cDaCBLjXgAX8Rr7GWOmcOQmAIAtebbsbTZUUiLhwzGkADOWnAU/08s4QAgeII+HWABxjlVGHJK/ZCA2igCw3Y93lwNAECRRE4cNLrPV7S92n86fygATRQsAa8aZWn6d6tqBaAwhZJ4GBJ78t4o6Auev3Ewd0jGkADixq4RtLp7PhXZLs4+kLfVdJpNPzc6RV8p7fo8PlOJ2CZBmYdAW9DTYBA1gT8jt8r5Hk7y2Vi5xhc0AAaQANbNeDtp1/PGIGs27+iM3+kpAtp+On4oAE0gAYaa8A+9KiR7kRadAM51sLfcqSbpXCXsvUuBSYwQQPDaOADk8GCtxhro0G5xkHgVyR9h95+494+znQYZwpnOOeogYsn+6k8ahxNBaUYEwHvk34yg/xo+On8oQE00KsGPEjwNZLscwkQCCewr6QPUul7rfQ53q2QZ+6y0UB/GvgYeweEt33FZ+BOkv6Nxp/GHw2gATQwuAa+JOkuxbdCAAghcD9W8hu8wnNH1d8dFWxhm6MGLpH0/4W0ACRaLIFDJV1Kj58OABpAA2ggXAOXSXpQsa0RBR+UwGGSvH51jr1l8ozd0AAaGKMGfizpIYO2BCRWHIFflnQ5jT+dHzSABtBAchpwJ+A+xbVKFHgQAneUdBGVPrlKP8a7GcrEXToaaKaB70o6aJAWgUSKIXBTSd67mkoJAzSABtBA2hr4sqT9immdKGivBLzgxFk0/nR+0AAaQAPZaOCjknbrtWUg8iEIXE/SI6cL7bkd9kq7V0032PuWpI9PF4byOb0sDvUqKn02lZ47s7TvzLAP9hlSAycM0UKRRi8E/NT9pTWX1vfGUS+RtHdXOXoMy/vS+NMBRANoIEsNeNngw7tqDIhnEAJ+deOOm6d2Nu0seqze49vm9jYs9NPYAE0Nx3XNRQ872KGBrRr4vqRbt20MuL53AvtP7tz9tL3LWXavk3Sdpjl/X4seCBVxa0WECUzQABqI0MDpTRsBruudwK2m7/d/0lN7e1qTsSBH9ZSZCPGTJk4XDaCB0jXwpN6bMhKoQ+CAnhv+eb17p97K4eaSvkcHgMf/aAANoIHRaOBidg+s3Ab2eeLtJb1B0pUD160jqhbKmZvvPfAZHmgADaCB/DXw+qqNAOd1TsA7575pOoUvoi55+uA+m0rlrSV/RgeADhAaQANoYHQasG+/66ZGgN87JXAHSack0q6+aFPJ/ppKP7pKH9HbJM387xax4Tht+FebGgF+74TA3SZLMr9tumBPKnXJr4FWLhZ0/4wa//MlvVnSUyQ9TJIfr9x4XeE6MSmRQAACpROwA7Wvsc95+NQHvUXSNzLxn14b4L6lG7HH8t9DkkfeX52oHn51Vdnfm2iGZ72nr0/mNL5ckl9TECAAAQikRsCP14+VZF8181sp/n9XauBGkJ97S3p3BgvnvXYZ6zsn3GM5T5KnJTZe0GBZgTkGAQhAoCcCu05X4PtUoh0B351yI9WN8e85veP3k5UUO3uLefIeEVtCiiP/vZyhG/5dtuSWAxCAAATSJ2Df9duS/O510RFHf/8f6eNLOoeHTF6lvD9Bu27S1bcXqfp91k8TK8jbp+/ZFvPKdwhAAAK5EdhX0jsT87FecnbjtLDcQA+Q38MknZGYLTc1+vO/u63fKTw5ocJ4cYTf2Sl3fIEABCAwDgIetOytXOcdcuTn/zoOrIOU4iGSPpyQ7droZidgH0ukUD+W9Os75YwvEIAABMZF4KGSfpSIz3WDRlhP4FBJH0zEXm0a/flrd5TYyxKmMHjBjf/9duSKDxCAAATGS8Dvj+3z5p1yxGf7/tuOF3Orkj1C0tkJ2KgPXewA89wECujH/ivnJu7IKR8gAAEIjIeAn3am8Drg2eNB2rokHrT5aEmpzt7oqjOwA9SHEugA8M5/hzn4AAEIFETgqQn4Xw9oKz142ubjJJ2TgD26auTXxbPN3teXdEVwgb1iEgECEIBAqQS8XOw6Z933b24DblAo/Nl6DZ8OtkHfNl6Mf5u5HxNcaM/z9xREAgQgAIFSCXiKYPQ6AX7fXVJww3+kpH8NbgMXG+ahvm+z9WuCC+9FfggQgAAESifwX4J98SsLMcBukv6TpC8E8x6qoV+VzjZze0nAVSf0fdzvWljhr5BaRzEhAIG1BOwLveR53353Vfxjnw7oDZy85sFXAhmvYh9xXH4EEjkX1Y9fCBCAAAQgsJ3AkwIbp0ulbW3C2Gxxvely8l8KZBvRwG9KU978Z9NJff3+tZGKbWyVh/JAAALDEfBmZ97mvC+/uyneA4crau8p7SHJMyxy2aJ5k226/l1PCBSat/QlQAACEIDAzgSOC/TLR+yclSy/7SXpGZK+Fcix68a6j/gUuQAQ21BmWbfINAQg0DOBuwU2XDkvCOQp7c7/hYH8+mio+4pTrwsC5UdcBAhAAAIQWE7ggiDffPLy7CR91OsXHC3pO0HM+mqg+45X7w0C9uak5UTmIAABCMQSeGuQb35PbLFrpe5tjF8s6ZIgVn030H3HH7bkoQdmECAAAQhAYDmBpwc1al4NL/XgheOOmdz1/yCIUd8N81Dxh82HfFjqCiN/EIAABAIJeGO0oRqC+XQ8VS7VcJNJxmj4u9OFvh0ksjukqjDyBQEIQCABAncK8s0eOZ9a2E/SCZIuC2Iy30Ea02d54YeIAnndawIEIAABCCwncNMg3+zH6qmEm00y4jv+qHYqom0cMk39LEhkXpmJAAEIQAACywnsHuSbr1qenUGP+o7/eEmXBzEYshGOTCvk7t8FJkAAAhCAwHoCUY3D+lz19+ttJjvDehriT2j4B2mbB0lkmYj7kxAxQwACEBgHgWW+c4hjQ9O77bTh/ykN/6Bt8qCJzQt3aIGRHgQgAIHcCMz7zCE/D8XpdtOG/woa/pC2OCRRC5kAAQhAAALrCQzZ6M+ntT5X7X/1LLBTpLAxaPNlLfkzHYD2WiYGCEAAAr0QiGqceimMJO9x8DZJV3PHv63t/aykJwayoAPQl9KJN3sC3pb1AZJeJelsSRdJ8gjpKKdMuu3Y23a2oW15kqTDJNnGKYcom3fN5O6STp0s2/tz6s82/3GepKPm9Bdm57CEu1YY8UGgIwJ7Snq+pItxVqPv7LhD4B1RbfMUQ+7++R7Thp87/u2d13MlHSlplwWxhdk5LOEFAHyFQAoEniDpmzT8o2/4F/3eNyQdkYIAF/KwmM+hvi9ko/bXe0o6TdI11KVtdemcFQ3/DOxQdl1MJ6yizwrOfwikQMA9cq84hsNq95h90cHk9N229+Izu6YgyGkeovg1RXA/SadTj3a0q2dJOrwCzDA7hyVcAQqnQGAIAnb47+BOZYfTivIJqaT79oQ6AVFM6ta7+08b/qj8ppbumRUb/hnnqPyHVfpZwfkPgWgCr6DxD/MDUY5vU7rHRotymv6mfPb1e9XiH0rDv1PdccP/0Krw5s7ry46b4t0p85tO7vL3ubLzEQJhBPzOv0tdE9c4ePp1wOPDVHltwlF6ujYHyz+54f8gdWeH73DD/+DlqCodDbNzWMKVsHASBPoj4JHfHvwVVQdIN232Hgy6V3/yqxRzlEZWZe5h02mUUflKLd0zJN13Fawax6PKFeb8arDhVAj0QuAFNP5h9T/K4dVN11MEI0Pd/HZ1/mKZ3fB/kvqyrb746ZAHOt5nEVKL713ZrW48YQ6gBSsuhUBrAl4Ahnn+ad+B13VmfZx/4dxiLa1F1yCCPspUJU5n1TNjPIL9UzT829pJr2Xghv/gBnbcdEkVm/RxDh2ATZbh91ESeCBOLazu9+HI+ozT77ujQp/lWhe3l6f1MrXrzinlN69e6OWLvYxxXyGKZZiB+wJJvBCoQuDVOLewuh/l7Jqm+8oqgurpnKZ55rr2nRff8Xsxo7v0ZNv5aKPsFeYE5gvPZwgMTeATdADC6n6Us2uarhdziQpN88x1zTsA3jPC+xYcNKDRo+wV5gQGZEtSENhCgPf/zR1klLOKStfjAKJCVJlLTHfW8B8YYOwo3nQAAoxNkvEEruQJQFjdj3J2TdO9IlCuTfPMddU7uPYFvuO/Y4F2DnMCgaxJGgJhuscxV3fMKbGKqjIpMRhbXtzwnyLp1lHGnUs3im2YI5wrOx8hMDiBqApHunQA6ogdvXSvl8slnSzplnUM0fO5UXamA9CzYYk+TQJRFY50u3foQzCNUvEQZSsljR9PG/5bRBlzTbpRNqADsMYo/DReAlEVjnTpANSpVeilvV4umzb8+9cBP/C5UXamAzCwoUkuDQJRFY502zv0CIZRqo0o61jS/JGk4yXtG2W8GulGMacDUMNInDoeAlEVjnTpANSpReilvl4umQA+ZnLXf+M6oIPPjbIzHYBgw5N8DIGoCke69R16CsxiVJonqyh7fXdiJDf8N4oyVot0o5jRAWhhNC7Nl0BUhSPdPBu1KKWjl8168aJebvhvGGWkDtKNsjMdgA6MRxT5EYiqcKS72aGnyChK4SmySCVPF0l6nqS9oozTYbpRTOkAdGhEosqHQFSFI106AHVqCXrZqhcvzeyGf886IBM/N8rOdAASFwbZ64dAVIUj3a0OPQcm/ahwc6w5sBkqj+dLOnoysn+PzdiyO2Mohovp0AHITipkuAsCixWB73k2zEPZrQvNNYljqPKlnM7Xpg3/7k0AZnJNFH86AJkIhGx2SyCqwpFunh2NbtVXPbaS9fJVSU+WtFt1XNmeGWVnOgDZSoaMtyEQVeFIlw5AHd2WqJcvF9Twz7QQZWc6ADML8L8oAlEVjnTpANSpaCXp5XOSjpJ0nTqARnJulJ3pAIxEQBSjHoGwClcvm5y9QKA0u0WVd8h0zyu44Z/Je0je82nRAZhZgP9FEZivBEN+LgpyD4Ud0lbzafVQlEpRzudhbJ/PlXSkpF0qkRj3SVG2pQMwbl1RuhUEwircivxwuBqB0uwWVd4+0z2Hhn+L2PvkvS5uOgBbTMGBEgisqxR9/lYC2z7L2Kdt1sXdZ5nWxb0uT7n9dpakw9cVtuDfomxJB6Bg0ZVc9LAKVzL0Dspemt2iyttlumfS8G9Ufpe868RFB2CjaThhjATqVJIuzx0jyyHL1KUt6sQ1ZBnn06qTx9TOdcP/0PnC8HklgSjb0QFYaRJ+GDOBsAo3ZqgDlK00u0WVt026bvgfPIAWxpREG95trqUDMCYVUZbKBNpUmjbXVs4gJy4l0IZ9m2uXZmaAg23yPPS1Z0i67wBMxpjE0LaapUcHYIxqokwbCcwqwND/N2aME9YSGNpes/TWZqrHH2fpp/r/GkmnS7pPjwxKiDrKvnQASlAXZdxCIKzCbckJB+oQKM1uUeXdlO6s4T+4jvE4dyWBTbz7+p0OwEqT8MOYCfRVoTbFO2amQ5RtE9++fh+ibMvS6Ks8TeO9enrHf69lmeVYYwJN7dH2OjoAjU3GhTkTaFtxml6fM7MU8t6Ue9vrosreNt9dXe+G/zRJd4kCMfJ0u7JT3XjoAIxcWBRvOYG6FaWr85fnhqNVCXRlh7rxVM1f1+fVzWfX518l6VRJB3VdMOLbiUDXdqsaHx2AnczAl1IIVK0gXZ9XCt++ytm1ParG11d5NsVbNX9dnzdr+A/clEF+74RA1/arGh8dgE7MRyS5EahaQbo+LzdOqeW3a3tUjS+KQ9X8dX3eAVEFLjTdru1XNT46AIUKrvRiV60gXZ9XOve25e/aHlXja5vvptdXzV/X5zXNL9c1I9C1/arGRwegmb24KnMCVStI1+dlji08+13bo2p8UQWvmr+uz4sqb6npdm2/qvHRAShVcYWXu2oF6fq8wrG3Ln7X9qgaX+uMN4ygav66Pq9hdrmsIYGu7Vc1PjoADQ3GZXkTqFpBuj4vb2rxue/aHlXjiyp51fx1fV5UeUtNt2v7VY2PDkCpiiu83FUrSNfnFY69dfG7tkfV+FpnvGEEVfPX9XkNs8tlDQl0bb+q8dEBaGgwLsubQNUK0vV5eVOLz33X9qgaX1TJq+av6/Oiyltqul3br2p8dABKVVzh5a5aQbo+r3DsrYvftT2qxtc64w0jqJq/rs9rmF0ua0iga/tVjY8OQEODcVneBKpWkK7Py5tafO67tkfV+KJKXjV/XZ8XVd5S0+3aflXjowNQquIKL3fVCtL1eYVjb138ru1RNb7WGW8YQdX8dX1ew+xyWUMCXduvanx0ABoajMvyJlC1gnR9Xt7U4nPftT2qxhdV8qr56/q8qPKWmm7X9qsaHx2AUhVXeLmrVpCuzysce+vid22PqvG1znjDCKrmr+vzGmaXyxoS6Np+VeOjA9DQYFyWN4GqFaTr8/KmFp/7ru1RNb6oklfNX9fnRZW31HS7tl/V+OgAlKq4wstdtYJ0fV7h2FsXv2t7VI2vdcYbRlA1f12f1zC7XNaQQNf2qxofHYCGBuOyvAlUrSBdn5c3tfjcd22PqvFFlbxq/ro+L6q8pabbtf2qxkcHoFTFFV7uqhWk6/MKx966+F3bo2p8rTPeMIKq+ev6vIbZ5bKGBLq2X9X46AAsMdh1JD1A0qsknS3pIklXSWGsqhoz6jyzMSOzOknSYZLMMOUQxSplJjnkrTS7lVbeHDTYRx7D7ByWcB8UW8a5p6TnS7qYxr51Z8cdgudKMtMUA7pP0Sqb81Sa3Uor72YFjPOMMDuHJZyYHZ8g6Zs0/K0b/kU9fUPSEYnZ2tlZzOdQ3xNEkVWWhrLTYjpRkBbzMdT3qPKWmu5Qdl1Mp3hHuMtEccdIuiawUVg0yti+m+3xknZNqHZHMU4IQZZZKc1upZU3S1F2kOkwO4cl3AG0tlG4QXoHDf9gncC3J9QJKFn3betN5PWl2a208kZqKzLtMDuHJRxJe5r2K2j8B2v8Zzo7NgG7Owuz/Az9P5HiZ5uNoe01Sy8K2Cz9of9HlbfUdIe27yy9Yh2h3/nPIPB/OBZ+HfD4BGp5lM0TKHrWWSjNbqWVN2txtsh8mJ3DEm4Bq+2lHpnuwWlRZS89XQ+23KutEVteH2WDltku/vLS7FZaeUsVeJidwxIOtPQLaPzDOz+eIhgZStR9JO+u0i7NbqWVtyud5BZPmJ3DEg6ykBeoYZ5//NOPC4MXCypN90HVrfNkS7NbaeXtXDCZRBhm57CEgwzzQO7+w+/+Z5o7NEgDTnaWh6H/BxZ5FEkPba9ZelHwZukP/T+qvKWmO7R9Z+kV5whfHej8Z9D5v70BfmVgbY+yQWCRR5F0aXYrrbyjEGmDQoTZOSzhBpC6uOQTdADCOn2LWjurC4M2jGMxL0N9b5hdLpsSGMpOi+lEGWAxH0N9jypvqekOZdfFdMIagyhD8/4/7vH3ovg8DiAqLOZlqO9R5R1LukPZaTGdKH6L+Rjqe1R5S013KLsuplNcB+BKngCE2XxRfFcE1vbFvAz1PbDIo0h6KDstphMFbzEfQ32PKm+p6Q5l18V0whqDKEPTAUjnCQAdgKhakG+6iw5sqO9RxIYq32I6UeUtNd1F/kN9L64DwCuAdDoAvAIo1d01L/dQjnExneY5bnflYj6G+t4u11xdl8BQdl1Mp7gOwNm8Agiz+aL4zqxbSzo8fzEvQ33vsAhFRjWUnRbTiYK9mI+hvkeVt9R0h7LrYjphjUGUoU+iAxBm80XxnRAlgkANBBZ5FEkvamio71HwhirfYjpR5S013UX+Q30PawyiDH1YoPMfyqi5pHNIlAgCNRBY5FEkHaXtKHillTeKc3S6YXYOSziIuJcCviiwAYjinVq6fv+/a5AGnGwUj8AijyLp0uxWWnlHIdIGhQizc1jCDSB1dYk3ookqN+luZ/+srozZMJ4oOzTMLpdNCZRmt9LKW6rQw+wclnCgpfeQdD6dgLBO0AWSvCVzZChR95G8u0q7NLuVVt6udJJbPGF2Dks42EJHSLqGTsDgnQAzf2yw7Z18qbpPAH2rLJRmt9LK20ocGV8cZuewhBMw1nGBDUEU9+h0X5aA3Z2FKA6JFD/bbJRmt9LKm60wW2Y8zM5hCbcE1sXlHoT29sDGIIp9VLp/GTzwb14zUQzm88Dn+gRKs1tp5a2viHFcEWbnsIQTsdsuk3wcw+uAXu+I/dj/+IQaf0uvdN0nUv1qZ6M0u5VW3tqCGMkFYXYOSzgxwz1e0jcCG4YoO/SdrgdbpvDOf1FufZd7VfyL+eB7PQKruPZ9vF4uuzu773Ktir+7EhBTFQKr7ND3ce6E5qzj2QHPkeQ56n2DH3v8ZvjsyZ2/maYYovinyCKnPJVmt9LKm5MWu8xrmJ3DEu6SXsdxeWzAoZJeKemsaYeAXQRXd4rMxg2+WZ0o6f6JPe5fJg90v4xK+sdKs1tp5U1fgf3kMMzOYQn3w5FYIVCJQJTuSXd1RzJlNpVE1cNJUUx6KApRriEQZuewhNfA4CcI9E0gSvekSwegjraj9FInj5zbnkCYncMSbs+MGCDQmECU7kmXDkAd0UbppU4eObc9gTA7hyXcnhkxQKAxgSjdky4dgDqijdJLnTxybnsCYXYOS7g9M2KAQGMCUbonXToAdUQbpZc6eeTc9gTC7ByWcHtmxACBxgSidE+6dADqiDZKL3XyyLntCYTZOSzh9syIAQKNCUTpnnTpANQRbZRe6uSRc9sTCLUqjLEAABPqSURBVLNzWMLtmREDBBoTiNI96dIBqCPaKL3UySPnticQZuewhNszIwYINCYQpXvSpQNQR7RReqmTR85tTyDMzmEJt2dGDBBoTCBK96RLB6COaKP0UiePnNueQJidwxJuz4wYINCYQJTuSZcOQB3RRumlTh45tz2BMDuHJdyeGTFAoDGBKN2TLh2AOqKN0kudPHJuewJhdg5LuD0zYoBAYwJRuiddOgB1RBullzp55Nz2BMLsHJZwe2bEAIHGBKJ0T7p0AOqINkovdfLIue0JhNk5LOH2zIgBAo0JROmedOkA1BFtlF7q5JFz2xMIs3NYwu2ZEQMEGhO4Unk2RFH1teR0r2issvYXRnE/oH3WiaEGgSg7KyzhGnA4FQJdE7iYDkBY3Y/yOU3TvbBr8dWIr2me2153laRTJR1YI6+c2pxAW3s1vT7MCTRHxZUQaE/gbDoAYXW/qbOKuu7M9nJrHENUmWfpzjoCBzUuARdWITDjPfT/MCdQBQrnQKAvAifRAQir+0M7ubbpndCXCCvE2zbvXV1/taTTJN2lQp45pT6BruxUN54wJ1AfEVdAoDsCh9EBCKv7dZ1U9PmHdCe72jFFl30xfXcETpd0r9ol4YJ1BBY5D/U9zAmsg8FvEOibwHUkXUQnIKz+D+Xg2qbj9/+79i3GNfG3zX9f118z7QgcvCbv/FSdQF922hRvmAOojoYzIdAPgefSAQir/5scUyq/P6sf6VWONRUOq/Ix6wjcp3KJOHEZgVV8+z4e5gCWQeAYBIYksIek8+kEhPmAvp1b2/gvkLTnkIJcklbbMgx5/RmS7rukDBzaTGBIO82nFVb5NyPhDAj0T+AISb6Lma8UfIaHNfHY/uW3MYUctehZEw/eWDJOmCcQZecwxzdfeD5DIJLAcXQAwvxAlOPblO7LIgU5l/amfKb8uzsCD50rCx9XE4iyY1jFX42CXyAwLAEP8no7nYAwXxDl/Fal+5fBA//m1b8qjzkdd0fg8PlC8XkLgSh7hlX6LQQ4AIFAArtM0j6G1wFh/iDKAc6n68f+xyfU+Ls6zOcv989n0RFY6eGibBsmsJUk+AECgQQeL+kbI3O8Uc4lp3Q9GDSFd/6L0s+JYdW8niPpSEnudBO2E6jKruvz6ACgQAgsEPDsgOdI8hzwrisc8aXF1DZ+9uTO3zZPMYxZL+fSEdghuSg7hzm4HSXnAwQSJeCxAYdKeqUkP750Y8Eugmk14HUcp21nG9qWJ0q6f2KP+5dVgzrly/Xc8yQdJcmLc5UaomxHB2CJ4izEB0h6lSRvGuMV47wpRpSRUk/XbMzIrLzGvpfZLbkyL5EUhyDQiEDqdb/L/H2u4I5AlxzrxBXWqDWqDT1f5EU/ni+JrWLbd3bcIfBKe9ELqfQsGaKHQK8E6jjzsZz7ZUlPlrRbr2TTijzKdnQApjp4gqRvcpffuR48oM6L7RAgAIH6BKIahhTS/WpBHYEo3p07/KoFqV8V+rmC6V/t7/Y32TzF6VX9qIlYIdAtgU11q4TfvybpaEm7d4s2qdii7Fh0B8CDvN7BXf9gGvBiO5E7qyVV48kMBCoQiGoYUkzXUzXdEUh1xkYFc648JYr3YM5/sYArSQz4wyto/Ae3/7ED2pekIJA7gUW/yfftMzmeN7LxRVF2HbwBmBU0umL6nf8sL/wfjoVfB3ixHQIEILCZAL5ptW/yQGN3BPbajDH5M6LsHNYIRlrEI9NZ7W11xepbjB5sOYZKG6lh0i6DQN91cQzxe9aWl/G+YcaSiLJDkR2AF3D3H2b3mdA9RZAAAQisJzCrL/zffMPy3QlKdwRutB5pkr9G2TesIYiygheoYZ7/5srUtyC9IhuLBUXVAtLNhUDf9XCM8V8yMa47AjfOxciBN6TFdQAeGAh7jJWtTZm8zC4BAhBYTaBN/Sr92h9Nd3fcdzXeZH6JslVxHYBX0wEIs/miyL3GPgECEFhNYLHO8L3+08vLJk8DTpa0/2rM4b9E2TWsMYgi/gk6AGE2XxS5N2UhQAACqwks1hm+1+8AzJj9eNoRuMVq3GG/zPI49P+wxiCKNO//m1egrsXpcQAECEBgNYGu6xzxSZdPOwK3XI198F+i7FJcB4DtXNPpAFwxeDUjQQjkRSCqYSghXbcFp0i6dQKSiOJNB4BXAmEaoAOQgOchC0kTiGoYSkrXHYFTJd0xUAlRvMOcfxRrXgGk8wSAVwBRtYB0cyEQ1TCUmO5V047AgQHiiOJdXAfgbO74w2y+KPIzAyoaSUIgJwKLdYbv/d/AzDoCBw0olCi7hjUGA7LdKamT6ACE2XxR5CfsZBm+QAACiwQW6wzf++8AzBhfLek0SXdZNEoP32dpDv0/rDHogWGlKA+jAxBm80VxH1LJYpwEgXIJLNaZob4/cbJp12fxldt85c8lvU3S3XqU4VB2XUwnrDHokeXaqL38rHeRWgTB92GZ+P3/rmstxY8QgECUXzL5XSQdLulT+Mtt7YWfCJw++Tu4B1mG2Tks4R4gVo3SG9FElZt0t7N/VlVjcR4ECiYQ5S8WkT9M0ifxm9vaDW9p7o7AfRYhtfgeZuewhFvAanvpHpLOR8xhnaALJHlLZgIEILCeQGr+2R0BBlJfewN5hqT7rjdhpV/D7ByWcCUs/Z10hCT35KLKX2q6Zv7Y/sxKzBAYFYEoP7EJojfy+iD+c0f74RlND94Ebc3vYXYOS3gNjKF+Og4B7xDwUDp42VDGJR0IjIDAUPVyMZ2q6NwR8OPwxetL/e6OwEOrwps7L4pXmOHmyh720YPQ3o54B9PAXzLwL0zrJJwngbCGoSau+9MR2MmPuiPgAZRVQ5idwxKuSqbn8zzS9RheB+wk3q414cf+x9P496xkoh8jga7rYtX4mrK837QjwOvV7U9FvONplY5AVbt0fV6vjn9dZpsKrK/rHi/pGzwN6FwPHmzJO/++VEu8Yyewzof2+VtbrvecLqJDR2B7R+AcSUdOp1YuY9unLdfF3bnDX5fY/G/LIEQf8+yA50jyHPX5vPK5Pg8zfPbkzt9MCRCAQDMCUb6nWW63XnWP6fr6nkMfVZaU0j13RUcgKo9hRtkqlXSOeGyAB7e8UpIf4bgxYxvh1RXYbMzIrE6U5PeBLPKTjp7JSb4EwhqGjpHdfdoR8Kp6UWVKKd3zJB0lyQvTOUTlLS7hacH5BwEIQAACywmENQzLs9P6qJfT9bK6PBHY3uh7uWUvuxxm57CEW0uJCCAAAQiMm8BY/fMdJJ0i6WeBjV8U25TSjet5jLveUjoIQAACrQlENRatM14xgttJOlnSFXQEQtrikEQtagIEIAABCKwnMPYOwKz0t512BH5KR2DQNnnQxObFPDM8/yEAAQhAYDmBeZ855Ofluen/6G2mHYGf0BEYpG0OG91+vf61RAoQgAAEsiWwe1Aj6Mfx0WG/6eJhlwcxGLKzFZmWLgkCvG+0wkgfAhCAQMIEbhrkm7+bEJObTfLilVovDWIR2TgPkba+FgTWo0AJEIAABCCwnMCdgnzzV5dnJ/SonwicIOmyICZDNMYRacjzECMS9r7SBAhAAAIQWE7gV4N8s1erSzXcZJIxPxH4QRCbiLayzzT18SCQT0lVYeQLAhCAQAIEnh7km72TXephb0nPk/T9IEZ9NspDxq33BwF8S+oKI38QgAAEAgmcGuSb3xdY5rpJ7yPpxVLYWLYhG+s+0tLrg0TmnfcIEIAABCCwnMAFQb75j5dnJ+mjN5i8Fjha0neCmPXROA8Rp6IeM7lwd01aUmQOAhCAQAwBb54zRAOwLI2nxhS5k1SvP92FlB1dq+lHUQNNLLyXd2JyIoEABCAwLgKvCOwAjGGAttdQeLKkbwZyXNa5Su2YvBZzVKa+Prcd4riqL6WBAAQg0IyAt4j1K9Iov3xAs2wnedUekvxEI5JnlB2rpLtt3/bIZRe9FSIBAhCAAAS2E/j3gY2/V97bdYSG8MqzR0n6UiDbKg3y0OdsM3XUVEAX1nNOdxmh4CgSBCAAgboE3Ph+LrCR+ljdDGd2/nUl/VdJXwlkPHQjvy69beY7NhjGb2cmIrILAQhAoA8C/y3YF7+0j0IlGKc7WkdK+nww73WN8xC/bTPNQ4IhXCyJvQESrCVkCQIQGIyA1/7/XrAvfuBgpU0jIY+3+A+S/jWY+xCN/bI0tlnBAyWi92F+Zxp6IBcQgAAEBifg16B/FdwI+f2/R8+XGPxE4PDJ36eDbbCske7z2A5bfyiBgrM88A5z8AECECiIgBex6dPRV4n77wvivaqo7gg8TtI5Cdijis3anrODw3MTKPBVkn59R474AAEIQGD8BB4p6WcJ+N9njh915RL6icyjJX0qAbu0beTXXb8DyK0lXZ1AYX8s6ZAdueIDBCAAgfESuL8kP3pf56SH+O3nkm45XsytSvYISWcnYKM+dLATmH9IpJCuEIZOgAAEIDBWAg+X9KNEfO4Hxgq5w3IdKumDidirq87ATni8UEJXEbeNx68Dcl6TeiewfIEABCAwJeDHy37nn8Jj/5mf9kh4QjUCnjX34YTaypkNm/zfqcTeUcmP4JtE1Nc1nh3AFMGdzMQXCEAgUwKe6veuxHysn0J4Ex1CPQKHSTojMVvWaYc9829LeGOCBfruZC3n/8KKgVtsxQEIQCAPAh5d7kV+ouf5L2sg3pAHwmRz6TFr70+w3Vxm6/lj315G9E6SPCBk/sRUPnuJTL+m2G1ZxjkGAQhAIDECqc8vt68/KDFmuWbnnpJOk3RNou3nYjv+kVWg3554Ac6XdJyku60qAMchAAEIBBK4u6Q/ymAXur8IZDTWpO8t6d0ZdAReu8oA98gg87PezAWS3irpaZJ+Zdqb9ZgB7/5EgAAEINAXAfsY+xrfQf+qpKdLOjWjPeg97ZubqL7UIbkd9ROBFKbXz9rL+f9uL1eGv078KcB8Qfic5isb7IJd0EC6GvBgREL/BNzJeltiHYGLJk/RvTPiyuD3GSlNU8GRpOtIsA22QQN5acC+3a8pCMMRuPP0CVEK7eoLqxTb7wio2DBAA2gADYxLA6+q0gBwTi8EPND+TZK81k1EvfLo/32qlOyGknxyRCZJE+5oAA2gge418E1Je1dpADinVwK3nyy/7CmYVw7cxj62TqmeNHDmqPDdV3iYwhQNoIGZBo6s0wBwbu8EDpB0sqSfDNDWvrpJaXJe7Wgmev7jANEAGihdA6z536QFHOaaW/XcEfhLSddpUhRn7OIBeielV07KTwOFBtBAXxq4UNItmjQAXDMogf0nr2g8RqPLXSL9hMGLUjUOv5bYNIa+Kgnx4oDRABoYmwY8F927DxLyIbCfpBMkXdbi5tvT/R7XVZG9stXYKgblwaZoAA2MXQMv76oRIJ7BCXgDqZdK+k6N9tfnvliSN/jrLHgN/o/VyMTYKxXlo+FAA2ggdQ1469pG7347azmIqAsCXnnST+L9OP+jkvxKxzv6efCgZ3b4mF8d+Jze7O3eyOfpBPAkBA2gATSQvAa+JOnmXbQ+xAGBGQHPX2R9AO58Ur/zIX9otGQNfEvS7WZOm/8Q6JKAl5H8PncAyd8BlOwAKTsdgFI18ENJ/65Lh09cEFgk8ICBFi8otRJTbhowNIAG6mrA74TtmwkQ6J3AL0v6Hk8CeBKABtAAGgjXwA9o/Htv80hggYC3O7yAyh9e+eveKXA+d5doYDwa8NQvHvsvNE58HYaAB5swO2A8zoSGAVuigXw08GVJ3mWOAIEwAl656CM8CeBJABpAA2hgMA14nv/Nwrw+CUNgjoAXIDiGZYMHq/zcpeVzl4atsFWXGrhmuijMdef8Lx8hkASBh9RcurDLikFcOFo0gAbGrAFvzuYV3wgQSJbALSX9HY8CeRqABtAAGuhMA97Sl139km32yNgigcMlnY8D6MwBjPnOhrJx544GlmvAq68etehc+Q6BHAhcf5JJjw24ko4AHQE0gAbQQGUN/Gz6rv+GOTh68giBdQTuIendkjyAhZ4+DNAAGkADyzVwtaR3SfKy6wQIjIqAFw86VZJ7tzgAGKABNIAGtmvADf/pku49Ko9PYSCwhMCBkv5M0mV0BOgIoQE0ULAGfiTpDSzos6SV4NDoCewh6chpz5enAtwNcjeIBkrQgO/2z5xsr/5kSTcYvZengBCoQMDTB58l6Qx2G+SOsOA7whIawBLLeLmkv5f0zMkdv30dAQIQWEFgd0kPkvSyaU/ZladEp0GZsTsayFMD9lm+y3+ppAdKsk8jQAACDQjsIum2kh4+2Yb4qZJeJ+lvpxXsM5K+IukSphvSSaKjiAZ61oCnNNvX2OfY97iRty/6E0lPmfoo+yr7LAIEIAABCEAAAhCAAAQgAAEIQAACEIAABCAAAQhAAAIQgAAEIAABCEAAAhCAAAQgAAEIQAACEIAABCAAAQhAAAIQgAAEIAABCEAAAhCAAAQgAAEIQAACEIAABCAAAQhAAAIQgAAEIAABCEAAAhCAAAQgAAEIQAACEIAABCAAAQhAAAIQgAAEIAABCEAAAhCAAAQgAAEIQAACEIAABCAAAQhAAAIQgAAEIAABCEAAAhCAAAQgAAEIQAACEIAABCAAAQhAAAIQgAAEIAABCEAAAhCAAAQgAAEIQAACEIAABCAAAQhAAAIQgAAEIAABCEAAAhCAAAQgAAEIQAACEIAABCAAAQhAAAIQgAAEIAABCEAAAhCAAAQgAAEIQAACEIAABCAAAQhAAAIQgAAEIAABCEAAAhCAAAQgAAEIQAACEIAABCAAAQhAAAIQgAAEIAABCEAAAhAYA4H/Bwor/xX3CuFJAAAAAElFTkSuQmCC;" parent="1" vertex="1">
          <mxGeometry x="-180" y="270" width="92" height="92" as="geometry" />
        </mxCell>
        <mxCell id="okYzZ2y9IbyXFJe2qwFz-2" value="&lt;font style=&quot;font-size: 18px;&quot;&gt;Camera&lt;/font&gt;" style="text;html=1;align=center;verticalAlign=middle;resizable=0;points=[];autosize=1;strokeColor=none;fillColor=none;" parent="1" vertex="1">
          <mxGeometry x="-185" y="362" width="90" height="40" as="geometry" />
        </mxCell>
      </root>
    </mxGraphModel>
  </diagram>
</mxfile>
